HIERARCHY
ROOT hip
{
  OFFSET 0 0 0
  CHANNELS 6 Xposition Yposition Zposition Zrotation Yrotation Xrotation
  JOINT abdomen
  {
    OFFSET 0 20.6881 -0.73152
    CHANNELS 3 Zrotation Xrotation Yrotation
    JOINT chest
    {
      OFFSET 0 11.7043 -0.48768
      CHANNELS 3 Zrotation Xrotation Yrotation
      JOINT neck
      {
        OFFSET 0 22.1894 -2.19456
        CHANNELS 3 Zrotation Xrotation Yrotation
        JOINT head
        {
          OFFSET -0.24384 7.07133 1.2192
          CHANNELS 3 Zrotation Xrotation Yrotation
          JOINT leftEye
          {
            OFFSET 4.14528 8.04674 8.04672
            CHANNELS 3 Zrotation Xrotation Yrotation
            End Site
            {
              OFFSET 1 0 0
            }
          }
          JOINT rightEye
          {
            OFFSET -3.6576 8.04674 8.04672
            CHANNELS 3 Zrotation Xrotation Yrotation
            End Site
            {
              OFFSET 1 0 0
            }
          }
        }
      }
      JOINT rCollar
      {
        OFFSET -2.68224 19.2634 -4.8768
        CHANNELS 3 Zrotation Xrotation Yrotation
        JOINT rShldr
        {
          OFFSET -8.77824 -1.95073 1.46304
          CHANNELS 3 Zrotation Xrotation Yrotation
          JOINT rForeArm
          {
            OFFSET -28.1742 -1.7115 0.48768
            CHANNELS 3 Zrotation Xrotation Yrotation
            JOINT rHand
            {
              OFFSET -22.5879 0.773209 7.07136
              CHANNELS 3 Zrotation Xrotation Yrotation
              JOINT rThumb1
              {
                OFFSET -1.2192 -0.487915 3.41376
                CHANNELS 3 Zrotation Xrotation Yrotation
                JOINT rThumb2
                {
                  OFFSET -3.37035 -0.52449 3.41376
                  CHANNELS 3 Zrotation Xrotation Yrotation
                  End Site
                  {
                    OFFSET -1.78271 -1.18214 1.43049
                  }
                }
              }
              JOINT rIndex1
              {
                OFFSET -7.75947 0.938293 5.60832
                CHANNELS 3 Zrotation Xrotation Yrotation
                JOINT rIndex2
                {
                  OFFSET -2.54057 -0.884171 1.56538
                  CHANNELS 3 Zrotation Xrotation Yrotation
                  End Site
                  {
                    OFFSET -1.62519 -0.234802 1.16502
                  }
                }
              }
              JOINT rMid1
              {
                OFFSET -8.24714 1.18213 3.41376
                CHANNELS 3 Zrotation Xrotation Yrotation
                JOINT rMid2
                {
                  OFFSET -3.10165 -0.590103 1.0647
                  CHANNELS 3 Zrotation Xrotation Yrotation
                  End Site
                  {
                    OFFSET -2.48547 -0.328903 0.83742
                  }
                }
              }
              JOINT rRing1
              {
                OFFSET -8.82822 0.546677 1.51678
                CHANNELS 3 Zrotation Xrotation Yrotation
                JOINT rRing2
                {
                  OFFSET -2.60934 -0.819778 -0.0198488
                  CHANNELS 3 Zrotation Xrotation Yrotation
                  End Site
                  {
                    OFFSET -2.33842 -0.294052 0.168128
                  }
                }
              }
              JOINT rPinky1
              {
                OFFSET -8.27202 -0.0477905 -0.4584
                CHANNELS 3 Zrotation Xrotation Yrotation
                JOINT rPinky2
                {
                  OFFSET -1.82734 -0.647385 -0.700984
                  CHANNELS 3 Zrotation Xrotation Yrotation
                  End Site
                  {
                    OFFSET -1.69225 -0.51767 -0.607171
                  }
                }
              }
            }
          }
        }
      }
      JOINT lCollar
      {
        OFFSET 2.68224 19.2634 -4.8768
        CHANNELS 3 Zrotation Xrotation Yrotation
        JOINT lShldr
        {
          OFFSET 8.77824 -1.95073 1.46304
          CHANNELS 3 Zrotation Xrotation Yrotation
          JOINT lForeArm
          {
            OFFSET 28.1742 -1.7115 0.48768
            CHANNELS 3 Zrotation Xrotation Yrotation
            JOINT lHand
            {
              OFFSET 22.5879 0.773209 7.07136
              CHANNELS 3 Zrotation Xrotation Yrotation
              JOINT lThumb1
              {
                OFFSET 1.2192 -0.487915 3.41376
                CHANNELS 3 Zrotation Xrotation Yrotation
                JOINT lThumb2
                {
                  OFFSET 3.37035 -0.52449 3.41376
                  CHANNELS 3 Zrotation Xrotation Yrotation
                  End Site
                  {
                    OFFSET 1.78271 -1.18214 1.43049
                  }
                }
              }
              JOINT lIndex1
              {
                OFFSET 7.75947 0.938293 5.60832
                CHANNELS 3 Zrotation Xrotation Yrotation
                JOINT lIndex2
                {
                  OFFSET 2.54057 -0.884171 1.56538
                  CHANNELS 3 Zrotation Xrotation Yrotation
                  End Site
                  {
                    OFFSET 1.62519 -0.234802 1.16502
                  }
                }
              }
              JOINT lMid1
              {
                OFFSET 8.24714 1.18213 3.41376
                CHANNELS 3 Zrotation Xrotation Yrotation
                JOINT lMid2
                {
                  OFFSET 3.10165 -0.590103 1.0647
                  CHANNELS 3 Zrotation Xrotation Yrotation
                  End Site
                  {
                    OFFSET 2.48547 -0.328903 0.83742
                  }
                }
              }
              JOINT lRing1
              {
                OFFSET 8.82822 0.546677 1.51678
                CHANNELS 3 Zrotation Xrotation Yrotation
                JOINT lRing2
                {
                  OFFSET 2.60934 -0.819778 -0.0198488
                  CHANNELS 3 Zrotation Xrotation Yrotation
                  End Site
                  {
                    OFFSET 2.33842 -0.294052 0.168128
                  }
                }
              }
              JOINT lPinky1
              {
                OFFSET 8.27202 -0.0477905 -0.4584
                CHANNELS 3 Zrotation Xrotation Yrotation
                JOINT lPinky2
                {
                  OFFSET 1.82734 -0.647385 -0.700984
                  CHANNELS 3 Zrotation Xrotation Yrotation
                  End Site
                  {
                    OFFSET 1.69225 -0.51767 -0.607171
                  }
                }
              }
            }
          }
        }
      }
    }
  }
  JOINT rButtock
  {
    OFFSET -8.77824 4.35084 1.2192
    CHANNELS 3 Zrotation Xrotation Yrotation
    JOINT rThigh
    {
      OFFSET 0 -1.70687 -2.19456
      CHANNELS 3 Zrotation Xrotation Yrotation
      JOINT rShin
      {
        OFFSET 0 -36.8199 0.73152
        CHANNELS 3 Zrotation Xrotation Yrotation
        JOINT rFoot
        {
          OFFSET 0.73152 -45.1104 -5.12064
          CHANNELS 3 Zrotation Xrotation Yrotation
          End Site
          {
            OFFSET -1.1221 -3.69964 12.103
          }
        }
      }
    }
  }
  JOINT lButtock
  {
    OFFSET 8.77824 4.35084 1.2192
    CHANNELS 3 Zrotation Xrotation Yrotation
    JOINT lThigh
    {
      OFFSET 0 -1.70687 -2.19456
      CHANNELS 3 Zrotation Xrotation Yrotation
      JOINT lShin
      {
        OFFSET 0 -36.8199 0.73152
        CHANNELS 3 Zrotation Xrotation Yrotation
        JOINT lFoot
        {
          OFFSET -0.73152 -45.1104 -5.12064
          CHANNELS 3 Zrotation Xrotation Yrotation
          End Site
          {
            OFFSET 1.1221 -3.69964 12.103
          }
        }
      }
    }
  }
}
MOTION
Frames:	4
Frame Time:	0.00833333
0.646799 83.9165 48.9146 2.8764 2.8495 1.9212 -0.264044 4.43427 -8.60846 5.31445 -2.29106 -2.33381 -9.42599 0.128449 -1.6093 5.04746 2.51692 -0.740307 -0.0 0.0 0.0 -0.0 0.0 0.0 -6.41548e-14 -7.5577e-15 -5.86912e-14 78.89 -2.87773 -5.8418 -8.67972 -3.37679 15.3478 -0.738062 23.6361 3.52628 1.02509e-09 -2.11278e-10 1.723e-10 1.77393e-09 -3.65897e-10 2.77722e-10 1.02509e-09 -2.11274e-10 1.72291e-10 7.73091 5.47488 0.417314 1.02509e-09 -2.11275e-10 1.72297e-10 2.90554 0.965183 0.102902 1.0251e-09 -2.11275e-10 1.72302e-10 10.2786 0.731801 0.0259123 1.02508e-09 -2.11273e-10 1.7231e-10 2.22167 -0.733487 -0.20892 -6.42643e-14 -7.55032e-15 -5.89894e-14 -76.9867 21.3742 -5.78495 17.2223 -9.87422 -32.2978 0.0549564 6.6748 -0.942391 7.32195e-10 1.72491e-09 4.29836e-10 1.26724e-09 2.98094e-09 7.38781e-10 7.32187e-10 1.72491e-09 4.29849e-10 -7.73091 5.47488 -0.417314 7.32187e-10 1.7249e-09 4.2983e-10 -2.90554 0.965183 -0.102902 7.32188e-10 1.72491e-09 4.29842e-10 -10.2786 0.731801 -0.0259123 7.32192e-10 1.72491e-09 4.29836e-10 -2.22167 -0.733487 0.20892 -2.03217e-16 0.0 -3.88251e-19 -1.79394 -38.8002 2.34843 -0.279035 35.7987 0.501944 -0.731622 2.15163 -4.66402 2.03217e-16 0.0 3.88251e-19 -4.12444 13.3795 -6.78006 0.0392028 22.1083 -0.608733 1.00026 8.16211 -4.72708
0.503408 84.0094 50.1872 2.922 2.8814 1.7028 0.12416 4.48718 -8.82198 5.42119 -2.28365 -2.38077 -9.50174 0.25478 -1.52538 4.94348 2.68208 -0.58365 -0.0 0.0 0.0 -0.0 0.0 0.0 -5.23988e-14 -1.73414e-14 -4.95909e-14 78.9212 -2.84871 -6.05471 -8.78716 -3.43747 15.5442 -0.702477 23.1272 3.4405 6.79329e-10 -1.48117e-10 3.52467e-10 1.1796e-09 -2.56968e-10 5.95307e-10 6.79329e-10 -1.48112e-10 3.52456e-10 7.73091 5.47488 0.417314 6.79327e-10 -1.48114e-10 3.52464e-10 2.90554 0.965183 0.102902 6.79336e-10 -1.48114e-10 3.52468e-10 10.2786 0.731801 0.0259123 6.79325e-10 -1.48112e-10 3.52476e-10 2.22167 -0.733487 -0.20892 -5.25129e-14 -1.73345e-14 -4.98973e-14 -77.7405 21.204 -5.15021 17.2126 -9.86435 -32.2768 0.0558642 6.73014 -0.950276 4.39236e-10 9.98128e-10 2.89194e-10 7.59645e-10 1.72424e-09 4.97674e-10 4.39229e-10 9.98134e-10 2.89209e-10 -7.73091 5.47488 -0.417314 4.39228e-10 9.98124e-10 2.89188e-10 -2.90554 0.965183 -0.102902 4.39229e-10 9.98131e-10 2.89199e-10 -10.2786 0.731801 -0.0259123 4.39234e-10 9.9813e-10 2.89193e-10 -2.22167 -0.733487 0.20892 -2.03217e-16 0.0 -3.88251e-19 -1.38694 -38.1777 2.18207 -0.292347 36.3449 0.475456 -0.742522 1.78539 -4.58924 2.03217e-16 0.0 3.88251e-19 -3.85238 12.0299 -6.92466 0.0713111 24.883 -0.616521 1.2773 10.8769 -5.40895
0.312593 84.1892 51.4896 2.6533 3.3575 1.3041 0.224679 4.60935 -9.18184 5.63493 -2.2033 -2.47374 -9.62644 0.392465 -1.42975 4.96521 2.77822 -0.39054 -0.0 0.0 0.0 -0.0 0.0 0.0 -4.42724e-14 -2.48513e-14 -2.13103e-14 78.9968 -2.36468 -6.22217 -9.00884 -3.5627 15.9523 -0.638249 22.1348 3.27604 2.26623e-10 4.7705e-11 6.04464e-10 4.01666e-10 8.13109e-11 1.03921e-09 2.26625e-10 4.77103e-11 6.04452e-10 7.73091 5.47488 0.417314 2.26621e-10 4.77079e-11 6.04461e-10 2.90554 0.965183 0.102902 2.26631e-10 4.7708e-11 6.04464e-10 10.2786 0.731801 0.0259123 2.2662e-10 4.77098e-11 6.04473e-10 2.22167 -0.733487 -0.20892 -4.4373e-14 -2.48451e-14 -2.1624e-14 -78.49 21.0144 -4.55998 17.1868 -9.83809 -32.2207 0.0572415 6.81237 -0.961996 5.77368e-11 1.06657e-10 1.94919e-10 9.93075e-11 1.83727e-10 3.37556e-10 5.77332e-11 1.06663e-10 1.94937e-10 -7.73091 5.47488 -0.417314 5.77318e-11 1.06653e-10 1.94913e-10 -2.90554 0.965183 -0.102902 5.7731e-11 1.06659e-10 1.94922e-10 -10.2786 0.731801 -0.0259123 5.7738e-11 1.06657e-10 1.94914e-10 -2.22167 -0.733487 0.20892 -2.03217e-16 0.0 -3.88251e-19 -1.24721 -37.4097 2.03355 -0.305782 36.8487 0.44734 -0.784686 1.19159 -4.7475 2.03217e-16 0.0 3.88251e-19 -3.73482 10.7506 -7.19617 0.107959 27.4562 -0.623297 1.68384 13.916 -6.30831
0.222618 84.3165 52.6583 2.657 3.8563 1.1288 0.281862 4.75012 -9.52297 5.85812 -2.10251 -2.56147 -9.75446 0.535213 -1.34793 5.04624 2.82198 -0.222531 -0.0 0.0 0.0 -0.0 0.0 0.0 -3.74401e-14 -3.02736e-14 1.09413e-14 79.104 -1.70495 -6.33744 -9.25804 -3.70406 16.4151 -0.569974 20.9737 3.08755 -2.20422e-10 2.77234e-10 8.3492e-10 -3.66877e-10 4.77981e-10 1.4458e-09 -2.20419e-10 2.77239e-10 8.34907e-10 7.73091 5.47488 0.417314 -2.20424e-10 2.77236e-10 8.34918e-10 2.90554 0.965183 0.102902 -2.20413e-10 2.77236e-10 8.34919e-10 10.2786 0.731801 0.0259123 -2.20424e-10 2.77238e-10 8.34928e-10 2.22167 -0.733487 -0.20892 -3.75185e-14 -3.02688e-14 1.0628e-14 -79.1826 20.8902 -4.01867 17.1475 -9.79836 -32.1349 0.0585075 6.88623 -0.97253 -3.22977e-10 -7.4931e-10 1.21409e-10 -5.59486e-10 -1.29512e-09 2.13382e-10 -3.22978e-10 -7.49303e-10 1.21428e-10 -7.73091 5.47488 -0.417314 -3.22979e-10 -7.49312e-10 1.21402e-10 -2.90554 0.965183 -0.102902 -3.22982e-10 -7.49308e-10 1.21409e-10 -10.2786 0.731801 -0.0259123 -3.22973e-10 -7.49311e-10 1.21399e-10 -2.22167 -0.733487 0.20892 -2.03217e-16 0.0 -3.88251e-19 -1.07847 -36.5749 1.99775 -0.317277 37.2492 0.415832 -0.844961 0.518145 -5.03127 2.03217e-16 0.0 3.88251e-19 -3.63788 9.41919 -7.45652 0.147875 29.9643 -0.632514 2.18864 16.9667 -7.25209
